<?xml version="1.0" encoding="iso-8859-1"?>
<!-- Generator: Adobe Illustrator 19.0.0, SVG Export Plug-In . SVG Version: 6.00 Build 0)  -->
<svg version="1.1" id="Capa_1" xmlns="http://www.w3.org/2000/svg" xmlns:xlink="http://www.w3.org/1999/xlink" x="0px" y="0px"
	 viewBox="0 0 470 470" style="enable-background:new 0 0 470 470;" xml:space="preserve">
<g>
	<path style="fill:#FFFFFF;" d="M177.962,388.352c-0.063,0.062-0.131,0.118-0.196,0.178c-0.648,0.594-1.391,1.076-2.205,1.412
		l-70.127,28.875c-0.017,0.008-0.034,0.015-0.051,0.021l-50.03,20.601c-0.923,0.38-1.893,0.564-2.854,0.564
		c-1.708,0-3.39-0.583-4.745-1.69c-0.194-0.158-0.38-0.326-0.56-0.506c-2.141-2.142-2.785-5.359-1.632-8.159l20.592-50.01
		c0.013-0.032,0.026-0.063,0.039-0.096l28.866-70.103c0.336-0.815,0.819-1.559,1.413-2.207c0.059-0.064,0.115-0.132,0.176-0.194
		c0.015-0.015,0.028-0.032,0.043-0.047l204.34-204.34L327.382,76.3c0.001-0.001,35.356-35.356,35.356-35.356
		c1.485-1.485,3.08-2.82,4.758-4.019V19.05c-2.898,0-5.412-1.644-6.661-4.05H29.997v440h235v-87.5c0-4.143,3.358-7.5,7.5-7.5h87.5
		V230.641c0-4.143,3.358-7.5,7.5-7.5v-24.32L178.008,388.31C177.994,388.324,177.977,388.337,177.962,388.352z"/>
	<polygon style="fill:#98D9D5;" points="349.391,375 279.997,375 279.997,444.394 	"/>
	<path style="fill:#6DA8D6;" d="M341.69,153.916l-30.052,30.053c-1.464,1.464-3.384,2.196-5.303,2.196s-3.839-0.732-5.303-2.196
		c-2.929-2.93-2.929-7.678,0-10.607l30.052-30.052l-24.748-24.748L115.188,309.709c3.443,2.018,6.652,4.488,9.527,7.363
		c5.88,5.881,9.975,13.013,12.035,20.571l135.998-135.998c2.929-2.928,7.678-2.928,10.606,0c2.929,2.93,2.929,7.678,0,10.607
		L147.356,348.25c7.559,2.06,14.69,6.154,20.57,12.034c2.876,2.876,5.346,6.085,7.365,9.528l191.147-191.147L341.69,153.916z"/>
	<polygon style="fill:#274B6D;" points="75.773,395.675 66.286,418.715 89.326,409.228 	"/>
	<path style="fill:#FFCC75;" d="M157.32,370.892c-7.086-7.087-16.709-10.369-25.744-8.783c-2.41,0.424-4.872-0.355-6.602-2.083
		c-1.729-1.729-2.507-4.193-2.083-6.603c1.587-9.032-1.696-18.656-8.783-25.744c-2.366-2.365-5.054-4.318-7.943-5.814L81.96,380.648
		l22.392,22.392l58.784-24.205C161.64,375.945,159.687,373.258,157.32,370.892z"/>
	
		<rect x="312.366" y="119.001" transform="matrix(-0.7071 -0.7071 0.7071 -0.7071 513.7766 473.0802)" style="fill:#F2EBD9;" width="84.999" height="22.266"/>
	<path style="fill:#F2484B;" d="M439.895,93.503c-0.503-5.182-2.748-9.97-6.445-13.668l-28.284-28.284
		c-0.539-0.539-1.099-1.042-1.676-1.515c-0.265-0.217-0.547-0.404-0.82-0.607c-0.321-0.239-0.636-0.49-0.967-0.71
		c-0.39-0.259-0.797-0.485-1.201-0.719c-0.227-0.131-0.447-0.277-0.677-0.399c-0.565-0.3-1.146-0.567-1.735-0.816
		c-0.073-0.031-0.143-0.07-0.215-0.101c-2.691-1.106-5.607-1.687-8.619-1.687c-3.01,0-5.925,0.58-8.615,1.686
		c-0.094,0.039-0.184,0.089-0.278,0.129c-0.567,0.242-1.128,0.499-1.673,0.787c-0.249,0.133-0.487,0.29-0.732,0.433
		c-0.385,0.224-0.775,0.438-1.147,0.686c-0.346,0.23-0.677,0.492-1.012,0.743c-0.258,0.193-0.526,0.37-0.776,0.575
		c-0.578,0.473-1.139,0.977-1.677,1.516l-30.053,30.053l60.104,60.104l30.052-30.053c3.698-3.697,5.942-8.485,6.445-13.667
		c0.072-0.74,0.108-1.488,0.108-2.242S439.967,94.243,439.895,93.503z"/>
	<path style="fill:#082947;" d="M359.997,230.641V360h-87.5c-4.142,0-7.5,3.357-7.5,7.5V455h-235V15h330.839
		c1.249,2.406,3.763,4.05,6.661,4.05c4.142,0,7.5-3.357,7.5-7.5V7.5c0-4.143-3.358-7.5-7.5-7.5h-345c-4.142,0-7.5,3.357-7.5,7.5v455
		c0,4.143,3.358,7.5,7.5,7.5h250c0.251,0,0.501-0.013,0.749-0.038c0.186-0.019,0.368-0.05,0.549-0.082
		c0.059-0.01,0.119-0.015,0.178-0.026c0.214-0.043,0.423-0.099,0.63-0.158c0.026-0.008,0.054-0.013,0.08-0.021
		c0.208-0.063,0.41-0.138,0.609-0.218c0.027-0.011,0.054-0.019,0.081-0.029c0.189-0.079,0.371-0.168,0.552-0.261
		c0.037-0.02,0.076-0.035,0.112-0.055c0.165-0.088,0.323-0.187,0.48-0.287c0.05-0.031,0.102-0.059,0.151-0.092
		c0.146-0.098,0.285-0.205,0.423-0.313c0.055-0.043,0.113-0.081,0.167-0.125c0.169-0.139,0.33-0.287,0.486-0.439
		c0.018-0.019,0.039-0.033,0.057-0.052l95-95c0.015-0.015,0.027-0.031,0.042-0.046c0.157-0.16,0.308-0.324,0.451-0.498
		c0.039-0.047,0.071-0.098,0.109-0.145c0.114-0.146,0.227-0.292,0.33-0.446c0.028-0.041,0.05-0.085,0.077-0.127
		c0.106-0.164,0.209-0.331,0.301-0.504c0.017-0.03,0.029-0.063,0.045-0.094c0.096-0.187,0.188-0.375,0.269-0.569
		c0.009-0.022,0.015-0.045,0.024-0.066c0.082-0.204,0.159-0.411,0.223-0.623c0.008-0.025,0.012-0.052,0.02-0.077
		c0.061-0.208,0.116-0.418,0.159-0.632c0.012-0.061,0.017-0.122,0.028-0.183c0.031-0.181,0.063-0.36,0.081-0.545
		c0.025-0.248,0.038-0.498,0.038-0.749V230.641c0-4.143-3.358-7.5-7.5-7.5C363.355,223.141,359.997,226.498,359.997,230.641z
		 M349.391,375l-69.394,69.394V375H349.391z"/>
	<path style="fill:#082947;" d="M455.003,95.745c0-10.04-3.888-19.457-10.947-26.518l-28.284-28.284
		c-2.647-2.646-5.626-4.848-8.845-6.565c-5.365-2.862-11.396-4.381-17.671-4.381c-6.372,0-12.49,1.571-17.916,4.519
		c-1.325,0.721-2.607,1.527-3.843,2.409c-1.678,1.198-3.273,2.533-4.758,4.019l-35.356,35.355
		c-0.001,0.001-26.352,26.353-26.352,26.353l-204.34,204.34c-0.015,0.015-0.028,0.032-0.043,0.047
		c-0.061,0.063-0.117,0.13-0.176,0.194c-0.594,0.648-1.078,1.392-1.413,2.207l-28.866,70.103c-0.013,0.032-0.027,0.063-0.039,0.096
		l-20.592,50.01c-1.153,2.8-0.509,6.018,1.632,8.159c0.179,0.18,0.366,0.348,0.56,0.506c1.355,1.107,3.037,1.69,4.745,1.69
		c0.961,0,1.931-0.185,2.854-0.564l50.03-20.601c0.017-0.007,0.034-0.014,0.051-0.021l70.127-28.875
		c0.814-0.336,1.557-0.818,2.205-1.412c0.066-0.06,0.133-0.116,0.196-0.178c0.015-0.015,0.031-0.027,0.046-0.042L367.497,198.82
		l14.848-14.848c0.007-0.008,61.71-61.711,61.71-61.711C451.115,115.202,455.003,105.785,455.003,95.745z M433.449,111.654
		l-30.052,30.053l-60.104-60.104l30.053-30.053c0.539-0.539,1.1-1.043,1.677-1.516c0.25-0.205,0.518-0.382,0.776-0.575
		c0.336-0.251,0.666-0.513,1.012-0.743c0.372-0.247,0.762-0.462,1.147-0.686c0.245-0.143,0.483-0.3,0.732-0.433
		c0.545-0.288,1.106-0.545,1.673-0.787c0.094-0.04,0.184-0.09,0.278-0.129c2.69-1.105,5.605-1.686,8.615-1.686
		c3.012,0,5.927,0.58,8.619,1.687c0.073,0.03,0.143,0.069,0.215,0.101c0.589,0.249,1.17,0.517,1.735,0.816
		c0.23,0.122,0.45,0.269,0.677,0.399c0.404,0.233,0.811,0.46,1.201,0.719c0.331,0.22,0.646,0.471,0.967,0.71
		c0.273,0.203,0.555,0.391,0.82,0.607c0.577,0.473,1.138,0.976,1.676,1.515l28.284,28.284c3.698,3.698,5.942,8.486,6.445,13.668
		c0.072,0.74,0.108,1.488,0.108,2.242s-0.036,1.502-0.108,2.242C439.391,103.169,437.147,107.957,433.449,111.654z M167.927,360.284
		c-5.88-5.88-13.012-9.975-20.57-12.034l135.998-135.997c2.929-2.93,2.929-7.678,0-10.607c-2.929-2.928-7.678-2.928-10.606,0
		L136.749,337.644c-2.06-7.559-6.155-14.69-12.035-20.571c-2.876-2.875-6.084-5.346-9.527-7.363l191.147-191.147l24.748,24.748
		l-30.052,30.052c-2.929,2.93-2.929,7.678,0,10.607c1.464,1.464,3.384,2.196,5.303,2.196s3.839-0.732,5.303-2.196l30.052-30.053
		l24.748,24.749L175.292,369.813C173.273,366.369,170.803,363.16,167.927,360.284z M75.773,395.675l13.553,13.553l-23.04,9.487
		L75.773,395.675z M104.352,403.04L81.96,380.648l24.205-58.784c2.889,1.496,5.577,3.449,7.943,5.814
		c7.087,7.088,10.371,16.712,8.783,25.744c-0.423,2.409,0.354,4.873,2.083,6.603c1.729,1.728,4.191,2.507,6.602,2.083
		c9.034-1.586,18.657,1.696,25.744,8.783c2.366,2.366,4.32,5.054,5.816,7.943L104.352,403.04z M377.046,168.058l-60.104-60.104
		l15.744-15.744l60.104,60.104L377.046,168.058z"/>
</g>
<g>
</g>
<g>
</g>
<g>
</g>
<g>
</g>
<g>
</g>
<g>
</g>
<g>
</g>
<g>
</g>
<g>
</g>
<g>
</g>
<g>
</g>
<g>
</g>
<g>
</g>
<g>
</g>
<g>
</g>
</svg>
